HIERARCHY
ROOT root
{
	OFFSET 0.000000 0.000000 0.000000
	CHANNELS 6 Xposition Yposition Zposition Zrotation Yrotation Xrotation
	JOINT lhip
	{
		OFFSET 0.058581 -0.082280 -0.017664
		CHANNELS 3 Zrotation Yrotation Xrotation
		JOINT lknee
		{
			OFFSET 0.043451 -0.386469 0.008037
			CHANNELS 3 Zrotation Yrotation Xrotation
			JOINT lankle
			{
				OFFSET -0.014790 -0.426874 -0.037428
				CHANNELS 3 Zrotation Yrotation Xrotation
				JOINT ltoe
				{
					OFFSET 0.041054 -0.060286 0.122042
					CHANNELS 3 Zrotation Yrotation Xrotation
					End Site
					{
						OFFSET 0.000000 0.000000 0.000000
					}
				}
			}
		}
	}
	JOINT rhip
	{
		OFFSET -0.060310 -0.090513 -0.013543
		CHANNELS 3 Zrotation Yrotation Xrotation
		JOINT rknee
		{
			OFFSET -0.043257 -0.383688 -0.004843
			CHANNELS 3 Zrotation Yrotation Xrotation
			JOINT rankle
			{
				OFFSET 0.019056 -0.420046 -0.034562
				CHANNELS 3 Zrotation Yrotation Xrotation
				JOINT rtoe
				{
					OFFSET -0.034840 -0.062106 0.130323
					CHANNELS 3 Zrotation Yrotation Xrotation
					End Site
					{
						OFFSET 0.000000 0.000000 0.000000
					}
				}
			}
		}
	}
	JOINT lowerback
	{
		OFFSET 0.004439 0.124404 -0.038385
		CHANNELS 3 Zrotation Yrotation Xrotation
		JOINT upperback
		{
			OFFSET 0.004488 0.137956 0.026820
			CHANNELS 3 Zrotation Yrotation Xrotation
			JOINT chest
			{
				OFFSET -0.002265 0.056032 0.002855
				CHANNELS 3 Zrotation Yrotation Xrotation
				JOINT lowerneck
				{
					OFFSET -0.013390 0.211636 -0.033468
					CHANNELS 3 Zrotation Yrotation Xrotation
					JOINT upperneck
					{
						OFFSET 0.010113 0.088937 0.050410
						CHANNELS 3 Zrotation Yrotation Xrotation
						End Site
						{
							OFFSET 0.000000 0.000000 0.000000
						}
					}
				}
				JOINT lclavicle
				{
					OFFSET 0.071702 0.114000 -0.018898
					CHANNELS 3 Zrotation Yrotation Xrotation
					JOINT lshoulder
					{
						OFFSET 0.122921 0.045205 -0.019046
						CHANNELS 3 Zrotation Yrotation Xrotation
						JOINT lelbow
						{
							OFFSET 0.255332 -0.015649 -0.022946
							CHANNELS 3 Zrotation Yrotation Xrotation
							JOINT lwrist
							{
								OFFSET 0.265709 0.012698 -0.007375
								CHANNELS 3 Zrotation Yrotation Xrotation
								End Site
								{
									OFFSET 0.000000 0.000000 0.000000
								}
							}
						}
					}
				}
				JOINT rclavicle
				{
					OFFSET -0.082954 0.112472 -0.023707
					CHANNELS 3 Zrotation Yrotation Xrotation
					JOINT rshoulder
					{
						OFFSET -0.113228 0.046853 -0.008472
						CHANNELS 3 Zrotation Yrotation Xrotation
						JOINT relbow
						{
							OFFSET -0.260127 -0.014369 -0.031269
							CHANNELS 3 Zrotation Yrotation Xrotation
							JOINT rwrist
							{
								OFFSET -0.269108 0.006794 -0.006027
								CHANNELS 3 Zrotation Yrotation Xrotation
								End Site
								{
									OFFSET 0.000000 0.000000 0.000000
								}
							}
						}
					}
				}
			}
		}
	}
}
MOTION
Frames: 8
Frame Time: 0.033333
-0.982674 0.226615 1.173725 91.754235 -0.438844 96.900088 1.232535 1.432736 -5.098021 -5.136824 -4.830970 39.124118 -12.182183 -0.062201 13.702817 0.000000 -0.000000 0.000000 -1.474425 -2.207592 -14.460747 -7.371382 -4.161441 46.673436 1.465341 -4.389280 11.901839 0.000000 -0.000000 0.000000 1.274733 -0.443262 17.457071 1.141960 0.103332 -0.219087 1.942332 0.335602 -4.426276 -3.062281 -3.827690 0.163524 2.779560 5.395991 -3.660214 -13.845887 1.637647 -0.770731 -48.571822 -2.942687 4.270137 153.389605 -80.748430 -126.169776 9.527915 -15.481984 -12.702401 10.728724 8.817807 -4.605628 54.668384 10.865282 8.957619 -43.393899 68.153672 -30.375573 -3.490884 11.851005 0.521433 
-0.920925 0.223993 1.179203 91.894469 -0.452038 95.669654 1.409762 1.827432 -7.912928 -4.612100 -2.713155 35.751067 -10.825920 0.910468 9.988189 0.000000 -0.000000 0.000000 -1.985650 -2.135403 -17.602360 -6.735891 -5.313918 44.060303 2.213783 -4.425961 9.648953 0.000000 -0.000000 0.000000 1.341496 -0.658858 21.040262 0.917974 0.431549 -0.708170 2.047457 0.297081 -3.743278 -2.419194 -3.483558 -1.275129 2.682396 4.602986 -2.509674 -17.738473 1.662139 -0.133840 -50.961872 -2.077008 6.395169 73.475636 -84.044155 -50.510675 12.120335 -14.708915 -15.517241 14.908922 10.487152 -2.751803 55.029872 11.879456 9.799861 -31.385757 56.101038 -24.494269 -7.726105 10.639281 -2.242235 
-0.858762 0.221692 1.172558 91.710456 -0.571494 94.512055 1.393088 2.065628 -10.153453 -4.581384 -1.666083 30.185397 -9.624819 1.922229 7.557877 0.000000 -0.000000 0.000000 -2.808023 -1.700137 -20.639663 -5.560850 -5.643553 40.350290 3.991565 -4.172576 7.526796 0.000000 -0.000000 0.000000 1.241056 -0.499168 24.859108 0.689205 0.964915 -1.562043 2.198922 0.545306 -2.722613 -1.959415 -2.780952 -2.908033 2.941639 2.785234 -1.792338 -20.042266 1.390035 0.483151 -52.967430 -1.474708 8.816051 26.759978 -76.192594 -9.229534 17.242148 -14.053968 -19.064999 17.514423 11.383460 -1.940456 55.631563 11.848978 10.888970 -25.353151 45.862745 -26.494879 -11.654210 7.887352 -8.753818 
-0.796652 0.219405 1.153144 91.779918 -0.968323 94.076990 1.124985 1.682635 -12.871909 -4.666021 -1.849963 23.456743 -8.671283 2.542153 6.726892 0.000000 -0.000000 0.000000 -3.897001 -1.693126 -24.186464 -4.160521 -5.136792 35.830994 5.783202 -2.991202 6.310698 0.000000 -0.000000 0.000000 1.292705 0.048888 28.043417 0.484475 1.321066 -2.266967 2.037732 0.646565 -2.085698 -1.801659 -2.059907 -5.052228 3.352362 0.691873 -0.928655 -22.517229 1.226400 1.290842 -52.490849 0.289189 10.979456 12.983864 -70.972023 0.635767 21.638189 -14.545818 -18.415439 21.158434 11.191300 -0.766873 54.944272 9.702017 11.133664 -24.703333 42.109814 -29.900827 -14.551270 7.964383 -6.986433 
-0.733333 0.216862 1.120374 92.244007 -1.461835 94.648370 0.882322 0.603386 -16.754187 -4.297560 -2.275876 17.131008 -8.441203 2.637360 7.506582 0.000000 -0.000000 0.000000 -4.900736 -2.233976 -28.610957 -3.729028 -5.319151 31.520066 7.434410 -3.278918 9.721762 0.000000 -0.000000 0.000000 1.236870 0.805416 29.900128 0.541872 1.575490 -2.636767 1.881669 0.472848 -2.155993 -1.615827 -1.575899 -7.919769 3.609118 -0.997327 0.264564 -26.703127 1.891940 3.457830 -49.401082 2.837449 12.469905 5.777540 -71.282070 5.342545 22.570564 -16.678846 -16.975908 26.840980 9.554838 1.400761 51.704769 6.526764 11.142308 -27.537020 44.531828 -32.261008 -17.063682 12.070725 -1.084174 
-0.667082 0.213833 1.073763 93.148818 -1.869360 95.078459 1.061571 -0.957675 -21.361883 -4.069150 -2.410439 14.729135 -7.915346 2.371162 8.037035 0.000000 -0.000000 0.000000 -6.025067 -2.339669 -32.451144 -3.918148 -6.412435 29.380634 8.231848 -4.815884 13.044709 0.000000 -0.000000 0.000000 1.084325 1.200840 30.745464 0.895159 1.756164 -2.303957 1.727539 -0.010762 -2.787078 -1.362454 -1.233372 -10.906038 3.127642 -1.961895 1.309593 -31.054267 3.372868 5.750530 -46.796825 5.780411 13.478038 4.384035 -73.616878 6.508553 20.806696 -20.105454 -14.277973 31.807635 7.716765 3.184912 48.882140 3.788287 11.328047 -30.543659 47.372680 -35.870853 -15.802104 13.989163 -0.168932 
-0.596323 0.209990 1.014938 94.150412 -1.704386 93.588626 1.886916 -2.138749 -25.117100 -4.532902 -2.859404 19.865876 -7.583821 1.838322 7.201131 0.000000 -0.000000 0.000000 -6.693445 -1.377595 -34.104802 -3.736076 -5.253217 32.695880 9.157075 -2.738024 12.431461 0.000000 -0.000000 0.000000 1.342576 0.991556 31.786365 1.183036 1.680865 -1.343103 1.485520 -0.109507 -3.489000 -1.192096 -0.880722 -13.148869 2.773171 -2.483252 1.020289 -33.092803 4.303251 6.871497 -48.481877 7.198151 12.798343 5.591574 -73.106641 6.282193 20.170139 -21.593997 -12.724440 33.754508 7.176660 4.245195 49.063217 3.409520 10.258059 -29.914380 46.611326 -35.419220 -15.819218 14.909692 -0.282896 
-0.523538 0.205617 0.948776 94.948923 -1.504002 89.870922 2.802736 -3.374968 -27.854047 -7.101876 -1.459224 41.222367 1.361469 2.619199 -15.684390 0.000000 -0.000000 0.000000 -6.890220 0.514624 -34.527201 -3.479312 -2.487262 51.821700 6.340400 -5.571102 -8.572750 0.000000 -0.000000 0.000000 1.119417 0.611729 35.369463 1.018907 2.215492 -4.516648 1.072953 -0.259735 -1.319522 0.901431 -0.162767 -17.690892 0.756622 -3.383378 3.692279 -33.743305 3.383448 6.064591 -51.065645 6.046434 10.978621 5.302119 -71.495711 7.938908 17.572730 -22.990204 -12.728869 34.393104 9.090883 3.640285 50.081943 4.430549 9.849013 -28.405702 42.527017 -35.247312 -13.524556 15.162203 0.274430 
